<?xml version="1.0" standalone="no"?><!DOCTYPE svg PUBLIC "-//W3C//DTD SVG 1.1//EN" "http://www.w3.org/Graphics/SVG/1.1/DTD/svg11.dtd"><svg class="icon" width="200px" height="200.00px" viewBox="0 0 1024 1024" version="1.1" xmlns="http://www.w3.org/2000/svg"><path d="M512 960c-60.4544 0-119.104-11.8912-174.3488-35.2a447.7952 447.7952 0 0 1-142.4384-96.0128 445.2992 445.2992 0 0 1-96-142.4384A445.9008 445.9008 0 0 1 64 512c0-60.4544 11.8912-119.104 35.2-174.3488a447.7952 447.7952 0 0 1 96.0128-142.4384 445.2992 445.2992 0 0 1 142.4384-96A445.4912 445.4912 0 0 1 512 64c60.4544 0 119.104 11.8912 174.3488 35.2a447.7952 447.7952 0 0 1 142.4384 96.0128 445.2992 445.2992 0 0 1 96 142.4384A445.9008 445.9008 0 0 1 960 512c0 60.4544-11.8912 119.104-35.2 174.3488a447.7952 447.7952 0 0 1-96.0128 142.4384 445.2992 445.2992 0 0 1-142.4384 96A445.9008 445.9008 0 0 1 512 960z m0-859.8784C284.8896 100.1216 100.1216 284.8896 100.1216 512c0 227.1104 184.768 411.8784 411.8784 411.8784 227.1104 0 411.8784-184.768 411.8784-411.8784C923.8784 284.8896 739.1104 100.1216 512 100.1216z" fill="#1890FF" /><path d="M612.3136 334.336L467.584 605.9776c25.7664 8.3968 51.3152 14.208 63.5648 14.208 10.7392-0.7936 20.736-2.5472 30.1184-5.0048-6.5664-15.104-10.1504-34.0224-10.1504-56.3712 0-62.4896 28.48-97.7792 70.9888-97.7792 39.4496 0 66.4576 30.3744 70.144 84.6848l-0.6784 0.1792c-9.7024 3.8656-18.9952 8.9216-28.2368 14.5792l0.0128-1.664c0 49.7408-16.9984 74.8288-41.2416 74.8288-14.9888 0-27.1616-9.28-34.3936-27.7376 28.7616-12.6208 52.0192-30.9888 75.6224-45.4272l0.0128-1.664c0-49.7408-16.9984-73.9712-41.2416-73.9712-24.6528 0-41.664 24.2304-41.664 73.984 0 19.4816 2.6112 35.1872 7.2704 47.0784-8.3072 3.648-17.0752 6.8224-26.4448 9.28 11.8528 27.4176 33.4336 42.2656 60.8384 42.2656 42.5216 0 70.5792-35.712 70.5792-98.6368 0-4.5056-0.1408-8.8704-0.4352-13.0944l25.472-6.7968c34.88-4.5696 158.1696-14.4384 220.3264 37.4144-3.7376 342.5024-401.0752 352.7808-424.9216 353.088H512C105.3184 926.3616 86.2976 605.3888 86.2976 605.3888c39.3344-14.336 100.2368-37.376 182.7328-69.1584 51.968-12.7616 90.4704 10.7008 129.3056 36.1216 8.1408 8.5248 26.496 17.792 47.36 25.856l-31.488 59.264h25.92l27.4432-51.4816a428.5056 428.5056 0 0 1-21.888-7.7824L585.984 334.336h26.3424z m-207.4624 0c42.9312 0 70.9888 35.2896 70.9888 97.792 0 62.912-28.0576 99.0464-70.9888 99.0464-42.5216 0-70.5792-36.1344-70.5792-99.0592 0-62.4896 28.0576-97.7792 70.5792-97.7792z m0 23.808c-24.2432 0-41.2416 24.2304-41.2416 73.984 0 49.7408 16.9984 74.816 41.2416 74.816 24.6528 0 41.664-25.088 41.664-74.8288s-17.0112-73.9712-41.664-73.9712z" fill="#1890FF" /></svg>