<?xml version="1.0" standalone="no"?><!DOCTYPE svg PUBLIC "-//W3C//DTD SVG 1.1//EN" "http://www.w3.org/Graphics/SVG/1.1/DTD/svg11.dtd"><svg class="icon" width="200px" height="200.00px" viewBox="0 0 1024 1024" version="1.1" xmlns="http://www.w3.org/2000/svg"><path d="M518.0416 960c-2.6496 0-5.8368-0.5248-7.9616-2.112L135.9488 742.1952c-5.2992-2.6496-7.9488-7.9488-7.9488-13.7856V295.4496c0-5.824 2.6496-10.5984 7.9488-13.7728l374.144-215.68a16.896 16.896 0 0 1 15.8976 0l374.144 215.68c5.2864 2.6496 7.936 7.936 7.936 13.7728v432.4352c0 5.8368-2.6496 10.5984-7.936 13.7856l-374.144 216.2176c-2.1248 1.5872-5.2992 2.112-7.9488 2.112zM159.7952 718.8736L518.0416 925.568l358.2336-206.6816V305.536L518.0416 98.8416 159.7952 305.5232v413.3504z" fill="#1890FF" /><path d="M514.8544 163.4944l294.1184 182.8352-95.3856 270.272-198.7328 43.456-301.5296 28.0832L260.48 370.176z" fill="#5DB1FF" /><path d="M514.8544 298.624l190.784 110.7712 87.4368 254.8992-278.2208 110.7584L324.096 616.576l23.8464-199.2448z" fill="#8BC7FF" /></svg>