<?xml version="1.0" standalone="no"?><!DOCTYPE svg PUBLIC "-//W3C//DTD SVG 1.1//EN" "http://www.w3.org/Graphics/SVG/1.1/DTD/svg11.dtd"><svg class="icon" width="200px" height="200.00px" viewBox="0 0 1024 1024" version="1.1" xmlns="http://www.w3.org/2000/svg"><path d="M329.6 742.4c-25.6-35.2-41.6-80-41.6-128 0-124.8 99.2-224 224-224S736 489.6 736 614.4c0 48-16 92.8-41.6 128l57.6 28.8C780.8 726.4 800 672 800 614.4c0-160-128-288-288-288S224 454.4 224 614.4c0 57.6 16 112 48 156.8l57.6-28.8z" fill="#8BC7FF" /><path d="M214.4 803.2C179.2 748.8 160 684.8 160 614.4A350.976 350.976 0 0 1 512 262.4 350.976 350.976 0 0 1 864 614.4c0 70.4-19.2 134.4-54.4 188.8l83.2 44.8C934.4 780.8 960 700.8 960 614.4c0-246.4-201.6-448-448-448S64 368 64 614.4c0 86.4 25.6 166.4 67.2 233.6l83.2-44.8z" fill="#1890FF" /><path d="M572.8 822.4C582.4 787.2 601.6 467.2 601.6 467.2S457.6 755.2 448 790.4s9.6 70.4 44.8 76.8c35.2 9.6 70.4-9.6 80-44.8z" fill="#8BC7FF" /></svg>